# xmcd CD database file
#
# Track frame offsets:
#	150
#	10001
#	17829
#	33887
#	49457
#	62341
#	67238
#	89536
#	101619
#	114004
#	119545
#	129608
#	140813
#	148717
#	161435
#	170125
#	179506
#	204335
#	223522
#	236880
#
# Disc length: 3375 seconds
#
# Revision: 3
# Processed by: cddbd v1.5.2PL0 Copyright (c) Steve Scherf et al.
# Submitted via: jetAudio 5
#
DISCID=290d2d14
DTITLE=Tom Waits - Orphans
DYEAR=1900
DGENRE=
TTITLE0=What Keeps Mankind Alive
TTITLE1=Children's Story
TTITLE2=Heigh Ho
TTITLE3=Army ANts
TTITLE4=Books of Moses
TTITLE5=Bone Chain
TTITLE6=Two Sisters
TTITLE7=First Kiss
TTITLE8=Dog Door
TTITLE9=Redrum 
TTITLE10=Nirvana
TTITLE11=Home I'll Never Be
TTITLE12=Poor Little Lamb
TTITLE13=Altar Boy
TTITLE14=The Pontiac
TTITLE15=Spidey's Wild Ride
TTITLE16=King Kong
TTITLE17=On The Road
TTITLE18=Dog Treat (Bonus Track)
TTITLE19=Missing My Son (Bonus Track)
EXTD=
EXTT0=
EXTT1=
EXTT2=
EXTT3=
EXTT4=
EXTT5=
EXTT6=
EXTT7=
EXTT8=
EXTT9=
EXTT10=
EXTT11=
EXTT12=
EXTT13=
EXTT14=
EXTT15=
EXTT16=
EXTT17=
EXTT18=
EXTT19=
PLAYORDER=
